<svg width="56" height="56" viewBox="0 0 56 56" fill="none" xmlns="http://www.w3.org/2000/svg">
<rect width="56" height="56" rx="12" fill="#2EB0E4" fill-opacity="0.1"/>
<path d="M28 13C24.0218 13 20.2064 14.5569 17.3934 17.3283C14.5804 20.0997 13 23.8585 13 27.7778C13 31.6971 14.5804 35.4559 17.3934 38.2272C20.2064 40.9986 24.0218 42.5556 28 42.5556L28 27.7778V13Z" fill="#2EB0E4"/>
<path d="M28 42.5555C31.9782 42.5555 35.7936 40.9986 38.6066 38.2272C41.4196 35.4559 43 31.6971 43 27.7778C43 23.8585 41.4197 20.0997 38.6066 17.3283C35.7936 14.5569 31.9783 13 28 13L28 27.7778L28 42.5555Z" fill="#2EB0E4" fill-opacity="0.5"/>
</svg>
